Coordinates
version=1
nRows=10
nColumns=33
inDegrees=yes

Units are S.I. units (second, meters, Newtons, ...)
Angles are in degrees.

endheader
time	ground_thorax_rot_x	ground_thorax_rot_y	ground_thorax_rot_z	ground_thorax_tx	ground_thorax_ty	ground_thorax_tz	clav_prot_r	clav_elev_r	scapula_abduction_r	scapula_elevation_r	scapula_upward_rot_r	scapula_winging_r	shoulder_elv_r	plane_of_elev_r	axial_rot_r	elbow_flexion_r	pro_sup_r	wrist_flex_r	wrist_dev_r	clav_prot_l	clav_elev_l	scapula_abduction_l	scapula_elevation_l	scapula_upward_rot_l	scapula_winging_l	shoulder_elv_l	plane_of_elev_l	axial_rot_l	elbow_flexion_l	pro_sup_l	wrist_flex_l	wrist_dev_l
      8.96000000	     27.12471405	     29.28606494	     40.72617405	    -97.56419989	    852.46809743	    -43.46126402	     12.35728000	     34.00564610	     26.77856199	     45.00000000	    -45.00000000	  -1887.59069728	  -1725.58629287	     23.94323636	    179.99999979	   1082.33746845	   -184.04110014	     16.74914559	     14.98843073	     -6.91337523	    -45.00000000	    -40.88808244	     45.00000000	    -45.00000000	  -3854.60974775	  -2079.61099101	     26.47948554	     31.40068099	    -10.69778749	     37.30726829	     14.07875679	    -21.05571042
      8.97000000	     27.30338521	     29.10856662	     40.37569437	    -98.76091614	    852.72177620	    -43.58919186	     12.30431942	     34.00350885	     26.57744328	     45.00000000	    -45.00000000	  -1887.69618248	  -1725.48719042	     24.16889233	    179.99999979	   1082.38578696	   -183.79052515	     16.93703955	     15.00461308	     -6.77243394	    -45.00000000	    -40.94768652	     45.00000000	    -45.00000000	  -3854.54464674	  -2079.73952883	     26.54306632	     31.27031351	    -10.71055577	     37.31036227	     14.05987368	    -21.24187820
      8.98000000	     27.26847256	     29.02228138	     40.28980371	    -99.94597280	    852.95029573	    -43.72165141	     12.32904519	     33.92083958	     26.38709924	     45.00000000	    -45.00000000	  -1887.60813919	  -1725.46221943	     24.08808262	    179.99999979	   1082.38469089	   -183.50088272	     16.99266832	     14.95543373	     -6.79908710	    -45.00000000	    -40.91585230	     45.00000000	    -45.00000000	  -3854.53066377	  -2079.63615171	     26.48412132	     31.13265073	    -10.64868817	     37.33496912	     13.95279643	    -21.24449409
      8.99000000	     27.31168558	     28.91503033	     40.15014276	   -101.11919626	    853.15014448	    -43.85764425	     12.26728567	     33.93175245	     26.29636183	     45.00000000	    -45.00000000	  -1887.66461498	  -1725.47210031	     24.09329323	    179.99999979	   1082.47333984	   -183.20457371	     17.15430237	     14.92747227	     -6.72760257	    -45.00000000	    -40.95376285	     45.00000000	    -45.00000000	  -3854.44237853	  -2079.65611410	     26.48004863	     31.00970877	    -10.62832360	     37.36383942	     13.90147999	    -21.37118742
      9.00000000	     27.39040596	     28.80143246	     39.96099561	   -102.26741046	    853.31870883	    -43.99457519	     12.20379539	     33.90577854	     26.16819419	     45.00000000	    -45.00000000	  -1887.64484092	  -1725.41220697	     24.07385829	    179.99999979	   1082.52213184	   -182.90612911	     17.28971927	     14.89486511	     -6.73636488	    -45.00000000	    -40.93398935	     45.00000000	    -45.00000000	  -3854.39713885	  -2079.65650786	     26.46469765	     30.89291847	    -10.61897545	     37.40189840	     13.83375715	    -21.43925766
      9.01000000	     27.41268089	     28.70741161	     39.85084906	   -103.38584413	    853.45769793	    -44.13058077	     12.19290861	     33.87867540	     26.02976835	     45.00000000	    -45.00000000	  -1887.65643624	  -1725.38898108	     24.06685073	    179.99999979	   1082.59721333	   -182.58462922	     17.41947610	     14.86755397	     -6.68695599	    -45.00000000	    -40.95899696	     45.00000000	    -45.00000000	  -3854.35110913	  -2079.65768981	     26.43823072	     30.75990282	    -10.59486766	     37.44312725	     13.77829784	    -21.51310692
      9.02000000	     27.49346530	     28.59336024	     39.67423100	   -104.45709730	    853.56901769	    -44.26229567	     12.10680417	     33.87659581	     25.91837182	     45.00000000	    -45.00000000	  -1887.65457315	  -1725.33527205	     24.05954280	    179.99999979	   1082.65928127	   -182.27115833	     17.56865719	     14.83578624	     -6.69253161	    -45.00000000	    -40.94183058	     45.00000000	    -45.00000000	  -3854.29910490	  -2079.68398066	     26.42897295	     30.63947209	    -10.61358643	     37.48362994	     13.72676078	    -21.58724560
      9.03000000	     24.44601095	     31.29397517	     44.23836630	   -104.68479750	    844.40005373	    -44.19798724	     12.34443870	     33.69817978	     25.10383672	     45.00000000	    -45.00000000	  -1889.23098986	  -1723.97316408	     24.15689247	    179.99999979	   1083.91349693	   -180.63295129	     17.48954139	     15.38087838	     -4.22336702	    -45.00000000	    -44.61293243	     45.00000000	    -45.00000000	  -3852.18877537	  -2079.52237427	     26.17097316	     28.07108644	    -10.74953178	     37.35918842	     14.02830568	    -21.82483345
      9.04000000	     24.71371803	     31.00857091	     43.77824914	   -105.67233500	    844.47062112	    -44.31559611	     12.44391327	     33.64152938	     25.12640723	     45.00000000	    -45.00000000	  -1889.29045381	  -1724.01195313	     24.23849863	    179.99999979	   1083.87845404	   -179.63745794	     17.78704624	     15.38358957	     -4.75232475	    -45.00000000	    -44.44227751	     45.00000000	    -45.00000000	  -3852.43963882	  -2079.27192886	     26.03550260	     29.03247339	    -10.92698830	     37.25072822	     13.80668498	    -21.65507743
      9.05000000	     24.72850867	     30.97631450	     43.68320574	   -106.58123434	    844.51700821	    -44.42292283	     12.40257191	     33.67749122	     24.88805752	     45.00000000	    -45.00000000	  -1889.24399160	  -1723.89573830	     24.21498042	    179.99999979	   1083.88134733	   -178.89920623	     17.90838743	     15.17875339	     -4.47325258	    -45.00000000	    -44.52809869	     45.00000000	    -45.00000000	  -3852.30634572	  -2079.40689114	     26.08403083	     28.76465943	    -10.95489783	     37.14859603	     13.94374235	    -21.76238038
